<mxfile host="app.diagrams.net" modified="2023-06-24T23:25:16.962Z" agent="Mozilla/5.0 (Windows NT 10.0; Win64; x64) AppleWebKit/537.36 (KHTML, like Gecko) Chrome/114.0.0.0 Safari/537.36" version="21.5.0" etag="k7NzWBIGB5Lh_cnNvo3d" type="github">
  <diagram name="Page-1" id="V0LjyVpgrlpSHwcuO5Br">
    <mxGraphModel>
      <root>
        <mxCell id="0" />
        <mxCell id="1" parent="0" />
      </root>
    </mxGraphModel>
  </diagram>
</mxfile>
